<svg xmlns="http://www.w3.org/2000/svg" viewBox="0 0 108.35 134.79"><defs><style>.cls-1,.cls-2{fill:none;stroke:#1d1d1b;stroke-miterlimit:10;}.cls-1{stroke-width:3px;}.cls-2{stroke-width:4px;}</style></defs><g id="Capa_2" data-name="Capa 2"><g id="Capa_1-2" data-name="Capa 1"><path class="cls-1" d="M19.15,34.29H92.7a0,0,0,0,1,0,0v92.52a6.48,6.48,0,0,1-6.48,6.48H25.63a6.48,6.48,0,0,1-6.48-6.48V34.29A0,0,0,0,1,19.15,34.29Z"/><line class="cls-2" x1="32.69" y1="46.72" x2="32.69" y2="133.29"/><line class="cls-2" x1="48.01" y1="46.72" x2="48.01" y2="133.29"/><line class="cls-2" x1="63.34" y1="46.72" x2="63.34" y2="133.29"/><line class="cls-2" x1="78.66" y1="46.72" x2="78.66" y2="133.29"/><polyline class="cls-1" points="108.07 32.8 72.78 26.17 35.56 19.19 0.28 12.56"/><path class="cls-1" d="M76.52,26.87l2.44-13c.59-3.14-1.75-6.2-5.22-6.85L45,1.62C41.49,1,38.2,3,37.61,6.12l-2.44,13"/></g></g></svg>