<svg xmlns="http://www.w3.org/2000/svg" viewBox="0 0 109.68 121"><defs><style>.cls-1,.cls-2{fill:none;stroke:#1d1d1b;stroke-miterlimit:10;}.cls-1{stroke-width:3px;}.cls-2{stroke-width:4px;}</style></defs><g id="Capa_2" data-name="Capa 2"><g id="Capa_1-2" data-name="Capa 1"><path class="cls-1" d="M18.07,20.5H91.61a0,0,0,0,1,0,0V113a6.48,6.48,0,0,1-6.48,6.48H24.54A6.48,6.48,0,0,1,18.07,113V20.5A0,0,0,0,1,18.07,20.5Z"/><line class="cls-2" x1="31.6" y1="32.93" x2="31.6" y2="119.5"/><line class="cls-2" x1="46.92" y1="32.93" x2="46.92" y2="119.5"/><line class="cls-2" x1="62.25" y1="32.93" x2="62.25" y2="119.5"/><line class="cls-2" x1="77.57" y1="32.93" x2="77.57" y2="119.5"/><polyline class="cls-1" points="109.68 20.5 73.77 20.5 35.9 20.5 0 20.5"/><path class="cls-1" d="M77.57,20.5V7.27c0-3.19-2.86-5.77-6.39-5.77H41.89c-3.53,0-6.39,2.58-6.39,5.77V20.5"/></g></g></svg>